HIERARCHY
ROOT Hips
{
	OFFSET 0.000000 0.000000 0.000000
	CHANNELS 6 Xposition Yposition Zposition Zrotation Yrotation Xrotation 
	JOINT LHipJoint
	{
		OFFSET 0.000000 0.000000 0.000000
		CHANNELS 3 Zrotation Yrotation Xrotation
		JOINT LeftUpLeg
		{
			OFFSET 1.363060 -1.794630 0.839290
			CHANNELS 3 Zrotation Yrotation Xrotation
			JOINT LeftLeg
			{
				OFFSET 2.448110 -6.726130 0.000000
				CHANNELS 3 Zrotation Yrotation Xrotation
				JOINT LeftFoot
				{
					OFFSET 2.562200 -7.039590 0.000000
					CHANNELS 3 Zrotation Yrotation Xrotation
					JOINT LeftToeBase
					{
						OFFSET 0.157640 -0.433110 2.322550
						CHANNELS 3 Zrotation Yrotation Xrotation
						End Site
						{
							OFFSET 0.000000 0.000000 0.000000
						}
					}
				}
			}
		}
	}
	JOINT RHipJoint
	{
		OFFSET 0.000000 0.000000 0.000000
		CHANNELS 3 Zrotation Yrotation Xrotation
		JOINT RightUpLeg
		{
			OFFSET -1.305520 -1.794630 0.839290
			CHANNELS 3 Zrotation Yrotation Xrotation
			JOINT RightLeg
			{
				OFFSET -2.542530 -6.985550 0.000000
				CHANNELS 3 Zrotation Yrotation Xrotation
				JOINT RightFoot
				{
					OFFSET -2.568260 -7.056230 0.000000
					CHANNELS 3 Zrotation Yrotation Xrotation
					JOINT RightToeBase
					{
						OFFSET -0.164730 -0.452590 2.363150
						CHANNELS 3 Zrotation Yrotation Xrotation
						End Site
						{
							OFFSET 0.000000 0.000000 0.000000
						}
					}
				}
			}
		}
	}
	JOINT LowerBack
	{
		OFFSET 0.000000 0.000000 0.000000
		CHANNELS 3 Zrotation Yrotation Xrotation
		JOINT Spine
		{
			OFFSET 0.028270 2.035590 -0.193380
			CHANNELS 3 Zrotation Yrotation Xrotation
			JOINT Spine1
			{
				OFFSET 0.056720 2.048850 -0.042750
				CHANNELS 3 Zrotation Yrotation Xrotation
				JOINT Neck
				{
					OFFSET 0.000000 0.000000 0.000000
					CHANNELS 3 Zrotation Yrotation Xrotation
					JOINT Neck1
					{
						OFFSET -0.054170 1.746240 0.172020
						CHANNELS 3 Zrotation Yrotation Xrotation
						JOINT Head
						{
							OFFSET 0.104070 1.761360 -0.123970
							CHANNELS 3 Zrotation Yrotation Xrotation
							End Site
							{
								OFFSET 0.000000 0.000000 0.000000
							}
						}
					}
				}
				JOINT LeftShoulder
				{
					OFFSET 0.000000 0.000000 0.000000
					CHANNELS 3 Zrotation Yrotation Xrotation
					JOINT LeftArm
					{
						OFFSET 3.362410 1.200890 -0.311210
						CHANNELS 3 Zrotation Yrotation Xrotation
						JOINT LeftForeArm
						{
							OFFSET 4.983000 -0.000000 -0.000000
							CHANNELS 3 Zrotation Yrotation Xrotation
							JOINT LeftHand
							{
								OFFSET 3.483560 -0.000000 -0.000000
								CHANNELS 3 Zrotation Yrotation Xrotation
								JOINT LeftFingerBase
								{
									OFFSET 0.000000 0.000000 0.000000
									CHANNELS 3 Zrotation Yrotation Xrotation
									JOINT LeftHandIndex1
									{
										OFFSET 0.715260 -0.000000 -0.000000
										CHANNELS 3 Zrotation Yrotation Xrotation
										End Site
										{
											OFFSET 0.000000 0.000000 0.000000
										}
									}
								}
								JOINT LThumb
								{
									OFFSET 0.000000 0.000000 0.000000
									CHANNELS 3 Zrotation Yrotation Xrotation
									End Site
									{
										OFFSET 0.000000 0.000000 0.000000
									}
								}
							}
						}
					}
				}
				JOINT RightShoulder
				{
					OFFSET 0.000000 0.000000 0.000000
					CHANNELS 3 Zrotation Yrotation Xrotation
					JOINT RightArm
					{
						OFFSET -3.136600 1.374050 -0.404650
						CHANNELS 3 Zrotation Yrotation Xrotation
						JOINT RightForeArm
						{
							OFFSET -5.241900 -0.000000 -0.000000
							CHANNELS 3 Zrotation Yrotation Xrotation
							JOINT RightHand
							{
								OFFSET -3.444170 -0.000000 -0.000000
								CHANNELS 3 Zrotation Yrotation Xrotation
								JOINT RightFingerBase
								{
									OFFSET 0.000000 0.000000 0.000000
									CHANNELS 3 Zrotation Yrotation Xrotation
									JOINT RightHandIndex1
									{
										OFFSET -0.622530 -0.000000 -0.000000
										CHANNELS 3 Zrotation Yrotation Xrotation
										End Site
										{
											OFFSET 0.000000 0.000000 0.000000
										}
									}
								}
								JOINT RThumb
								{
									OFFSET 0.000000 0.000000 0.000000
									CHANNELS 3 Zrotation Yrotation Xrotation
									End Site
									{
										OFFSET 0.000000 0.000000 0.000000
									}
								}
							}
						}
					}
				}
			}
		}
	}
}
MOTION
Frames: 9
Frame Time: 0.008333
-0.198057 17.029109 -42.301316 1.394286 -7.316061 20.396364 -1.024017 -3.310031 -4.747903 -12.899719 -8.699622 -46.702271 0.568508 11.072899 28.063132 0.537000 -1.036774 6.942504 0.556000 -4.776400 -13.271900 0.020217 0.897403 -0.751799 13.532996 -0.580364 -3.319039 -2.801435 -11.302963 34.964768 -0.909854 16.419816 20.353146 -0.276600 3.382500 -9.345500 -4.177082 2.751340 -10.038361 -0.636778 3.839407 -9.735765 -0.067325 2.242436 0.604539 -2.300463 -2.810101 -8.946834 4.870675 -4.077810 13.270428 0.645900 -1.693300 4.848600 12.866684 7.949468 0.600068 -100.491612 20.810917 -47.752235 2.843019 -9.370468 0.188330 -1.493943 0.083969 71.467380 14.121099 -18.419074 -4.365500 -7.125000 0.000000 0.000000 -8.734700 12.656300 6.688700 -13.196185 -7.135246 -0.257320 93.404748 0.029162 33.746637 -37.009184 51.934451 -16.334033 0.260833 -1.509114 -14.492786 -18.904027 -35.504495 10.749800 7.125000 0.000000 0.000000 17.736400 -64.526000 -8.511200
-0.194499 17.029219 -42.166443 1.542580 -7.156919 20.299319 -1.001478 -3.277120 -4.698305 -13.256498 -8.751868 -46.687832 0.740840 11.342666 28.936476 0.579179 -1.591732 6.383277 0.529711 -4.662516 -12.948728 -0.018965 0.923369 -0.810290 13.397858 -0.329409 -3.849412 -3.138843 -11.758902 36.527504 -0.977648 16.007365 21.569368 -0.357406 3.816136 -10.562846 -4.437279 2.669195 -9.869033 -0.666021 3.778405 -9.752697 -0.041737 2.209988 0.500207 -2.321282 -2.798278 -9.015463 5.028551 -4.082803 13.182355 0.717415 -1.691360 4.835532 12.856159 7.919332 0.581556 -100.417217 20.718109 -48.412604 2.901916 -9.459997 0.192608 -1.506044 0.102847 71.924020 14.184160 -18.772889 -4.474024 -7.125000 0.000000 0.000000 -8.692740 12.303368 6.720042 -13.200662 -7.116262 -0.230640 93.555964 -0.573419 33.413386 -36.793360 51.792475 -16.182668 0.269970 -1.508863 -14.398580 -18.380773 -35.123324 10.344239 7.125000 0.000000 0.000000 17.968966 -64.027740 -8.415080
-0.190974 17.029295 -42.031914 1.691920 -6.994537 20.202500 -0.979510 -3.244220 -4.648638 -13.610247 -8.812573 -46.668978 0.912264 11.610325 29.803470 0.621000 -2.142335 5.824323 0.503843 -4.550327 -12.630382 -0.058077 0.949454 -0.868903 13.263112 -0.078493 -4.382668 -3.478542 -12.215384 38.095132 -1.046086 15.596470 22.785269 -0.434300 4.229065 -11.722026 -4.698681 2.585130 -9.696897 -0.694450 3.714791 -9.769970 -0.014675 2.176476 0.393456 -2.341521 -2.786932 -9.079146 5.184134 -4.088217 13.090263 0.787736 -1.689877 4.819176 12.845846 7.889315 0.563460 -100.343980 20.622286 -49.018399 2.959777 -9.549844 0.196046 -1.517187 0.120304 72.314660 14.233406 -19.109167 -4.574081 -7.125000 0.000000 0.000000 -8.659600 11.968218 6.755152 -13.204895 -7.097349 -0.203990 93.706478 -1.174503 33.085798 -36.575654 51.649168 -16.030050 0.278450 -1.508758 -14.311114 -17.881902 -34.756866 9.956555 7.125000 0.000000 0.000000 18.188316 -63.549722 -8.321084
-0.188237 17.028583 -41.905415 1.865725 -6.756346 20.110948 -0.970910 -3.211583 -4.597356 -13.893106 -9.071203 -46.546828 1.062416 11.828684 30.521888 0.654455 -2.591040 5.271757 0.487815 -4.477791 -12.424972 -0.095563 0.978332 -0.930392 13.137542 0.171500 -4.983366 -3.871874 -12.684561 39.777217 -1.129578 15.222008 23.993646 -0.419649 4.157447 -11.520139 -4.988254 2.456118 -9.459060 -0.703841 3.590037 -9.795189 0.046893 2.118096 0.230112 -2.348171 -2.786773 -9.027102 5.286069 -4.103480 12.904134 0.830105 -1.699065 4.725864 12.840503 7.862072 0.555117 -100.297839 20.455937 -48.347166 2.993371 -9.647153 0.179846 -1.505905 0.104486 71.160891 13.959398 -19.035065 -4.476022 -7.125000 0.000000 0.000000 -8.832851 12.049177 6.878428 -13.203422 -7.080086 -0.178029 93.840593 -1.740544 32.890747 -36.313927 51.474720 -15.848100 0.271580 -1.512067 -14.381397 -17.953592 -34.734705 9.987183 7.125000 0.000000 0.000000 18.098424 -63.545383 -8.276776
-0.185406 17.027880 -41.779335 2.038864 -6.516771 20.017575 -0.963339 -3.179146 -4.546189 -14.171685 -9.336004 -46.414312 1.210187 12.042601 31.226777 0.685980 -3.020081 4.727984 0.469025 -4.391342 -12.180413 -0.132817 1.007282 -0.992063 13.012787 0.414522 -5.591413 -4.268964 -13.153200 41.464492 -1.213328 14.851039 25.188981 -0.411568 4.116508 -11.404938 -5.274212 2.327347 -9.218790 -0.712887 3.464662 -9.819246 0.106954 2.059183 0.068547 -2.351068 -2.791754 -8.973709 5.380027 -4.124870 12.724918 0.867858 -1.711278 4.635305 12.835608 7.835456 0.546590 -100.250201 20.285395 -47.655927 3.026465 -9.744115 0.163685 -1.494557 0.088400 69.976794 13.680010 -18.964362 -4.377343 -7.125000 0.000000 0.000000 -9.009486 12.126847 7.004993 -13.201882 -7.062874 -0.152035 93.977416 -2.302130 32.697115 -36.051810 51.300021 -15.666005 0.263882 -1.515963 -14.447499 -18.048765 -34.754278 10.042300 7.125000 0.000000 0.000000 18.020787 -63.586182 -8.257326
-0.181520 17.027278 -41.657927 2.204545 -6.261700 19.903814 -0.967280 -3.148951 -4.496300 -14.402312 -9.669906 -46.165699 1.331280 12.206776 31.780141 0.695887 -3.228890 4.282698 0.419306 -4.149078 -11.497366 -0.167474 1.037028 -1.055781 12.897169 0.579471 -6.281758 -4.708143 -13.615805 43.209896 -1.299960 14.519202 26.238245 -0.477060 4.419159 -12.260623 -5.519689 2.201275 -8.951262 -0.718054 3.332347 -9.830274 0.150134 1.994310 -0.073089 -2.311925 -2.854303 -8.905222 5.384636 -4.214885 12.623135 0.853922 -1.757373 4.575581 12.835736 7.815855 0.536003 -100.185801 20.067911 -46.740636 3.053963 -9.837192 0.147968 -1.482462 0.069303 68.453023 13.340368 -18.931738 -4.271729 -7.125000 0.000000 0.000000 -9.224032 12.167684 7.168392 -13.199582 -7.046240 -0.125682 94.144577 -2.813830 32.519379 -35.785342 51.122524 -15.482284 0.246913 -1.526422 -14.466789 -18.406951 -35.241277 10.371700 7.125000 0.000000 0.000000 18.080409 -64.132528 -8.516282
-0.177404 17.027342 -41.535698 2.365747 -6.032242 19.788661 -0.971940 -3.119544 -4.446769 -14.639905 -9.969407 -45.909332 1.449071 12.365118 32.317510 0.705406 -3.428281 3.837564 0.372035 -3.916799 -10.842731 -0.202167 1.066338 -1.119989 12.775694 0.752728 -6.976105 -5.150764 -14.075505 44.954247 -1.389347 14.157254 27.273902 -0.547579 4.736152 -13.158370 -5.757508 2.083669 -8.701488 -0.724692 3.210531 -9.837074 0.191793 1.934021 -0.197421 -2.275134 -2.911121 -8.841295 5.388543 -4.296686 12.521393 0.840608 -1.799520 4.515888 12.836137 7.796868 0.526367 -100.129374 19.850438 -45.780084 3.082503 -9.935674 0.133038 -1.471539 0.049024 66.895279 13.020671 -18.919207 -4.176684 -7.125000 0.000000 0.000000 -9.425612 12.187879 7.325589 -13.198102 -7.031006 -0.099193 94.311011 -3.321115 32.345743 -35.522355 50.947697 -15.301027 0.229400 -1.537211 -14.479254 -18.783233 -35.751432 10.719508 7.125000 0.000000 0.000000 18.146144 -64.705641 -8.789825
-0.171657 17.032159 -41.407613 2.495005 -5.985483 19.663586 -0.981736 -3.095750 -4.399779 -14.927187 -10.023509 -45.597649 1.543308 12.481851 32.740776 0.712157 -3.560494 3.393521 0.342224 -3.755749 -10.390769 -0.237111 1.092534 -1.187694 12.612444 0.985255 -7.698996 -5.617942 -14.514483 46.691078 -1.498383 13.580512 28.212496 -0.653959 5.155444 -14.356165 -5.940701 2.026447 -8.578364 -0.741823 3.163614 -9.813713 0.222602 1.906437 -0.198311 -2.255121 -2.927059 -8.809904 5.387448 -4.319891 12.419947 0.831726 -1.813506 4.456420 12.838483 7.782258 0.523512 -100.129830 19.633040 -44.496675 3.118481 -10.072721 0.123723 -1.468968 0.020307 65.095186 12.843257 -19.050008 -4.157031 -7.125000 0.000000 0.000000 -9.534697 12.060825 7.438554 -13.202465 -7.025767 -0.071734 94.472255 -3.796895 32.201343 -35.284194 50.791915 -15.137342 0.208007 -1.550353 -14.443025 -19.288588 -36.426771 11.198626 7.125000 0.000000 0.000000 18.255484 -65.469698 -9.167412
-0.165775 17.037855 -41.279070 2.622412 -5.961032 19.533172 -0.992850 -3.072498 -4.352568 -15.228265 -10.035173 -45.273623 1.632914 12.591281 33.143797 0.721180 -3.702626 2.950009 0.314848 -3.606891 -9.973143 -0.271344 1.118504 -1.255335 12.444664 1.221010 -8.420835 -6.086381 -14.946696 48.416244 -1.605656 12.988499 29.106602 -0.759561 5.562536 -15.521165 -6.118771 1.975508 -8.461078 -0.761330 3.124828 -9.786438 0.246882 1.881610 -0.186410 -2.226917 -2.938018 -8.798379 5.383954 -4.336136 12.316526 0.819999 -1.823644 4.399938 12.841526 7.768145 0.520264 -100.128449 19.405231 -43.204989 3.154831 -10.210213 0.115789 -1.467603 -0.009588 63.316611 12.703113 -19.203503 -4.153554 -7.125000 0.000000 0.000000 -9.620218 11.909939 7.537360 -13.208180 -7.021046 -0.043734 94.648174 -4.256287 32.044597 -35.026739 50.623893 -14.961106 0.187406 -1.564126 -14.395237 -19.744652 -37.072759 11.640823 7.125000 0.000000 0.000000 18.397645 -66.191772 -9.546146
